<mxfile host="Electron" modified="2024-03-15T16:03:00.557Z" agent="Mozilla/5.0 (X11; Linux x86_64) AppleWebKit/537.36 (KHTML, like Gecko) draw.io/24.0.4 Chrome/120.0.6099.109 Electron/28.1.0 Safari/537.36" etag="XN0yNUFVCdX5N54AMAsM" version="24.0.4" type="device">
  <diagram name="Page-1" id="5C7D9fxwPASxrtbKSDV1">
    <mxGraphModel dx="1195" dy="635" grid="1" gridSize="10" guides="1" tooltips="1" connect="1" arrows="1" fold="1" page="1" pageScale="1" pageWidth="827" pageHeight="1169" math="0" shadow="0">
      <root>
        <mxCell id="0" />
        <mxCell id="1" parent="0" />
        <mxCell id="Ts7DM8DF8Qo3VntZLhZt-1" value="Project Leader" style="shape=umlLifeline;perimeter=lifelinePerimeter;whiteSpace=wrap;html=1;container=0;dropTarget=0;collapsible=0;recursiveResize=0;outlineConnect=0;portConstraint=eastwest;newEdgeStyle={&quot;edgeStyle&quot;:&quot;elbowEdgeStyle&quot;,&quot;elbow&quot;:&quot;vertical&quot;,&quot;curved&quot;:0,&quot;rounded&quot;:0};" vertex="1" parent="1">
          <mxGeometry x="190" y="40" width="100" height="240" as="geometry" />
        </mxCell>
        <mxCell id="Ts7DM8DF8Qo3VntZLhZt-2" value="" style="html=1;points=[];perimeter=orthogonalPerimeter;outlineConnect=0;targetShapes=umlLifeline;portConstraint=eastwest;newEdgeStyle={&quot;edgeStyle&quot;:&quot;elbowEdgeStyle&quot;,&quot;elbow&quot;:&quot;vertical&quot;,&quot;curved&quot;:0,&quot;rounded&quot;:0};" vertex="1" parent="Ts7DM8DF8Qo3VntZLhZt-1">
          <mxGeometry x="45" y="80" width="10" height="140" as="geometry" />
        </mxCell>
        <mxCell id="Ts7DM8DF8Qo3VntZLhZt-3" value="add activity in week 7" style="html=1;verticalAlign=bottom;startArrow=oval;endArrow=block;startSize=8;edgeStyle=elbowEdgeStyle;elbow=vertical;curved=0;rounded=0;" edge="1" parent="Ts7DM8DF8Qo3VntZLhZt-1">
          <mxGeometry relative="1" as="geometry">
            <mxPoint x="-75" y="80" as="sourcePoint" />
            <mxPoint x="45" y="80" as="targetPoint" />
          </mxGeometry>
        </mxCell>
        <mxCell id="Ts7DM8DF8Qo3VntZLhZt-4" value="Project" style="shape=umlLifeline;perimeter=lifelinePerimeter;whiteSpace=wrap;html=1;container=0;dropTarget=0;collapsible=0;recursiveResize=0;outlineConnect=0;portConstraint=eastwest;newEdgeStyle={&quot;edgeStyle&quot;:&quot;elbowEdgeStyle&quot;,&quot;elbow&quot;:&quot;vertical&quot;,&quot;curved&quot;:0,&quot;rounded&quot;:0};" vertex="1" parent="1">
          <mxGeometry x="375" y="40" width="100" height="240" as="geometry" />
        </mxCell>
        <mxCell id="Ts7DM8DF8Qo3VntZLhZt-5" value="" style="html=1;points=[];perimeter=orthogonalPerimeter;outlineConnect=0;targetShapes=umlLifeline;portConstraint=eastwest;newEdgeStyle={&quot;edgeStyle&quot;:&quot;elbowEdgeStyle&quot;,&quot;elbow&quot;:&quot;vertical&quot;,&quot;curved&quot;:0,&quot;rounded&quot;:0};" vertex="1" parent="Ts7DM8DF8Qo3VntZLhZt-4">
          <mxGeometry x="45" y="80" width="10" height="130" as="geometry" />
        </mxCell>
        <mxCell id="Ts7DM8DF8Qo3VntZLhZt-6" value="addActivity(Activity)" style="html=1;verticalAlign=bottom;endArrow=block;curved=0;rounded=0;" edge="1" parent="1" target="Ts7DM8DF8Qo3VntZLhZt-5">
          <mxGeometry width="80" relative="1" as="geometry">
            <mxPoint x="245" y="140" as="sourcePoint" />
            <mxPoint x="370" y="140" as="targetPoint" />
          </mxGeometry>
        </mxCell>
        <mxCell id="Ts7DM8DF8Qo3VntZLhZt-7" value="CreateTimeBlock(Activity, 16/9, 16/9)" style="html=1;verticalAlign=bottom;endArrow=block;curved=0;rounded=0;" edge="1" parent="1" source="Ts7DM8DF8Qo3VntZLhZt-2" target="Ts7DM8DF8Qo3VntZLhZt-5">
          <mxGeometry width="80" relative="1" as="geometry">
            <mxPoint x="250" y="170" as="sourcePoint" />
            <mxPoint x="370" y="170" as="targetPoint" />
          </mxGeometry>
        </mxCell>
      </root>
    </mxGraphModel>
  </diagram>
</mxfile>
